<?xml version="1.0" standalone="yes"?>
<svg xmlns="http://www.w3.org/2000/svg" width="96" height="96">
<path style="fill:#4c6971; stroke:none;" d="M0 0C0 13.6524 0.472216 27.3749 0 41C3.03244 34.7409 4.12685 27.9752 8.10494 22C11.495 16.9081 17.9534 13.1291 19 7L22 8C23.2767 6.08502 23.2767 6.91499 22 5L25 6L24 4C29.2162 4.34429 33.8703 1.75757 39 1C35.1345 -0.554207 30.1712 0.0325851 26 0.00308228C17.3342 -0.0582123 8.66601 0 0 0z"/>
<path style="fill:#ffffff; stroke:none;" d="M32.6667 0.333336C32.2222 0.777786 33.2778 0.722206 33.3333 0.666664C33.7778 0.222237 32.7222 0.277779 32.6667 0.333336M24 4L25 6C23.5215 5.01432 23.7968 5 22 5L22 8C20.5215 7.01433 20.7968 7 19 7C17.8185 11.2154 14.0209 13.7618 11.1852 17C8.07186 20.5552 5.73175 24.6679 3.87268 29C-1.04284 40.4543 1.39553 51.1836 0 63C0.684799 61.7517 0.748795 61.4516 1 60C2.09189 62.8672 2.30491 64.9475 2 68C3.19542 67.4023 2.9774 67.5339 4 66L5 70L3 69C4.30372 71.1571 4.57764 71.5829 7 72L6 75C7.91499 76.2767 7.085 76.2767 9 75C9.3198 82.5062 19.5352 91.3329 27 91L26 93L29 92L28 94L32 93C30.4661 94.0226 30.5977 93.8046 30 95L34 96C33.3502 94.7003 33.8532 95 32 95C43.4814 93.9748 55.2925 97.3169 67 95C66.3502 93.7003 66.8532 94 65 94C66.6839 93.7761 67.3135 93.7817 69 94L68 92C72.1168 92.2347 75.1863 91.2708 76 87C81.9628 86.746 87.746 80.9628 88 75C89.915 76.2767 89.085 76.2767 91 75L90 72C94.5225 71.0562 94.5404 67.0426 94 63L95 65C98.2187 54.3123 94.8283 41.978 96 31C94.7003 31.6498 95 31.1468 95 33C94.3578 29.0343 94.4559 24.9299 90 24L91 21C89.085 19.7233 89.915 19.7233 88 21C87.6548 12.8975 75.977 3.5404 68 4L69 2L65 3L67 2C65.1535 1.53246 63.9315 1.69874 62 2L64 1C56.7993 -0.940651 46.3662 -0.861221 39 0.464508C33.9194 1.3789 29.1931 4.08657 24 4z"/>
<path style="fill:#4c6971; stroke:none;" d="M58 0C59.5061 0.683037 60.3148 0.82589 62 1C60.494 0.316963 59.6852 0.17411 58 0M62 1C63.9433 1.62177 64.949 1.43583 67 1L65 2C66.8092 2.57428 67.0688 2.46532 69 2L68 4C75.4196 3.95596 87.1377 13.611 88 21L91 21C90.0143 22.4785 90 22.2032 90 24C94.218 24.9791 94.1452 29.2448 94 33C96.4633 29.3943 95.9997 25.2512 96 21L96 0C85.0198 0 72.7151 -1.55106 62 1z"/>
<path style="fill:#ffffff; stroke:none;" d="M30.6667 1.33334C30.2222 1.77776 31.2778 1.72223 31.3333 1.66666C31.7778 1.22221 30.7222 1.27779 30.6667 1.33334M28 2L29 3L28 2M26 3L27 4L26 3z"/>
<path style="fill:#4c6971; stroke:none;" d="M70 4L71 5L70 4M72 5C76.5695 10.0041 82.4579 15.0961 88 19C83.8648 13.1296 78.5122 8.09869 72 5z"/>
<path style="fill:#ffffff; stroke:none;" d="M21 6L22 7L21 6M18 8C14.471 11.5294 10.877 14.9157 8 19C11.8069 16.3183 16.8725 12.6512 18 8z"/>
<path style="fill:#c4edee; stroke:none;" d="M40.6667 12.3333C40.2222 12.7778 41.2778 12.7222 41.3333 12.6667C41.7778 12.2222 40.7222 12.2778 40.6667 12.3333z"/>
<path style="fill:#72d5d6; stroke:none;" d="M37.6667 13.3333C37.2222 13.7778 38.2778 13.7222 38.3333 13.6667C38.7777 13.2223 37.7222 13.2778 37.6667 13.3333z"/>
<path style="fill:#0cb6b8; stroke:none;" d="M42 83C41.9997 80.168 42.6841 76.0933 40.9722 73.6373C39.0033 70.8126 34.6837 69.6127 32.0401 67.4707C26.4248 62.9208 22.5787 55.2906 22.5787 48C22.5787 40.7094 26.4248 33.0792 32.0401 28.5293C34.6837 26.3873 39.0033 25.1874 40.9722 22.3627C42.6841 19.9067 41.9997 15.832 42 13C3.66532 18.6613 3.728 77.3479 42 83z"/>
<path style="fill:#2fc1c2; stroke:none;" d="M42 13L42 23C43.3457 19.793 43.3457 16.207 42 13z"/>
<path style="fill:#0cb6b8; stroke:none;" d="M54 13C54.0003 15.8094 53.2839 20.0266 55.0278 22.4406C56.7439 24.8161 60.6817 25.7539 62.9961 27.5332C69.1177 32.2393 74.0412 40.0477 73.8704 48C73.6951 56.1593 69.3885 63.5525 62.9961 68.4668C60.6818 70.2461 56.7439 71.1839 55.0278 73.5594C53.2839 75.9734 54.0003 80.1906 54 83C75.1487 81.1419 88.2784 57.5957 82.6991 38C78.9811 24.9417 67.3191 14.967 54 13z"/>
<path style="fill:#a9e5e6; stroke:none;" d="M57.6667 13.3333C57.2222 13.7778 58.2778 13.7222 58.3333 13.6667C58.7777 13.2223 57.7222 13.2778 57.6667 13.3333z"/>
<path style="fill:#72d5d6; stroke:none;" d="M35 14L36 15L35 14M53 14L53 23C54.2561 20.0059 54.2561 16.9941 53 14M60 14L61 15L60 14z"/>
<path style="fill:#a9e5e6; stroke:none;" d="M32 15L33 16L32 15M63 15L64 16L63 15M30 16L31 17L30 16M65 16L66 17L65 16z"/>
<path style="fill:#50cbcc; stroke:none;" d="M29 17L30 18L29 17M66 17L67 18L66 17z"/>
<path style="fill:#8fddde; stroke:none;" d="M27 18L28 19L27 18M68 18L69 19L68 18z"/>
<path style="fill:#50cbcc; stroke:none;" d="M26 19L27 20L26 19M69 19L70 20L69 19z"/>
<path style="fill:#ffffff; stroke:none;" d="M7 20L6 22C7.26273 21.0287 7.39188 21.3063 7 20z"/>
<path style="fill:#a9e5e6; stroke:none;" d="M72 21L73 22L72 21z"/>
<path style="fill:#4c6971; stroke:none;" d="M89 21L90 22L89 21z"/>
<path style="fill:#a9e5e6; stroke:none;" d="M73 22L74 23L73 22z"/>
<path style="fill:#ffffff; stroke:none;" d="M5 23L3 27C4.46592 25.5053 4.96073 25.0379 5 23z"/>
<path style="fill:#8fddde; stroke:none;" d="M40.6667 23.3333C40.2222 23.7778 41.2778 23.7222 41.3333 23.6667C41.7778 23.2222 40.7222 23.2778 40.6667 23.3333z"/>
<path style="fill:#a9e5e6; stroke:none;" d="M54 23L55 24L54 23M74 23L75 24L74 23z"/>
<path style="fill:#8fddde; stroke:none;" d="M38 24L39 25L38 24z"/>
<path style="fill:#a9e5e6; stroke:none;" d="M57 24L58 25L57 24z"/>
<path style="fill:#50cbcc; stroke:none;" d="M58 24L59 25L58 24z"/>
<path style="fill:#a9e5e6; stroke:none;" d="M75 24L76 25L75 24z"/>
<path style="fill:#4c6971; stroke:none;" d="M91 24L93 30C93.4441 27.4171 92.6306 26.043 91 24z"/>
<path style="fill:#a9e5e6; stroke:none;" d="M36 25L37 26L36 25M59 25L60 26L59 25z"/>
<path style="fill:#50cbcc; stroke:none;" d="M60 25L61 26L60 25z"/>
<path style="fill:#72d5d6; stroke:none;" d="M19 26L20 27L19 26z"/>
<path style="fill:#8fddde; stroke:none;" d="M34 26L35 27L34 26z"/>
<path style="fill:#a9e5e6; stroke:none;" d="M61 26L62 27L61 26M18 27L19 28L18 27z"/>
<path style="fill:#50cbcc; stroke:none;" d="M63 27L64 28L63 27z"/>
<path style="fill:#72d5d6; stroke:none;" d="M77 27L78 28L77 27z"/>
<path style="fill:#ffffff; stroke:none;" d="M2.33333 28.6667C2.27776 28.7222 2.22224 29.7778 2.66667 29.3333C2.72222 29.2778 2.77777 28.2222 2.33333 28.6667z"/>
<path style="fill:#50cbcc; stroke:none;" d="M31 28L32 29L31 28z"/>
<path style="fill:#72d5d6; stroke:none;" d="M64 28L65 29L64 28z"/>
<path style="fill:#a9e5e6; stroke:none;" d="M78 28L79 29L78 28z"/>
<path style="fill:#72d5d6; stroke:none;" d="M17 29L18 30L17 29z"/>
<path style="fill:#50cbcc; stroke:none;" d="M30 29L31 30L30 29z"/>
<path style="fill:#8fddde; stroke:none;" d="M65 29L66 30L65 29z"/>
<path style="fill:#50cbcc; stroke:none;" d="M29 30L30 31L29 30z"/>
<path style="fill:#a9e5e6; stroke:none;" d="M66 30L67 31L66 30z"/>
<path style="fill:#8fddde; stroke:none;" d="M79 30L80 31L79 30z"/>
<path style="fill:#ffffff; stroke:none;" d="M1 31L2 32L1 31z"/>
<path style="fill:#50cbcc; stroke:none;" d="M16 31L17 32L16 31M28 31L29 32L28 31z"/>
<path style="fill:#8fddde; stroke:none;" d="M67 31L68 32L67 31z"/>
<path style="fill:#50cbcc; stroke:none;" d="M68 32L69 33L68 32z"/>
<path style="fill:#72d5d6; stroke:none;" d="M80 32L81 33L80 32z"/>
<path style="fill:#ffffff; stroke:none;" d="M0 33L0 36C0.6961 34.4463 0.696099 34.5537 0 33z"/>
<path style="fill:#50cbcc; stroke:none;" d="M15 33L16 34L15 33z"/>
<path style="fill:#4c6971; stroke:none;" d="M95 33L95 36C95.6961 34.4463 95.6961 34.5537 95 33z"/>
<path style="fill:#72d5d6; stroke:none;" d="M26 34L27 35L26 34z"/>
<path style="fill:#8fddde; stroke:none;" d="M46 34C47.2484 34.6848 47.5484 34.7488 49 35C47.7516 34.3152 47.4516 34.2512 46 34z"/>
<path style="fill:#a9e5e6; stroke:none;" d="M69 34L70 35L69 34z"/>
<path style="fill:#8fddde; stroke:none;" d="M81 34L82 35L81 34z"/>
<path style="fill:#50cbcc; stroke:none;" d="M45 35L46 36L45 35z"/>
<path style="fill:#0cb6b8; stroke:none;" d="M46.1474 35.7616C41.1163 37.7963 42.0974 52.5524 43.4336 56.8912C44.2727 59.6157 47.0077 61.4024 49.8557 60.3526C52.1903 59.492 52.7436 57.2239 52.9414 54.9954C53.3506 50.3834 55.2927 32.063 46.1474 35.7616z"/>
<path style="fill:#50cbcc; stroke:none;" d="M70 35L71 36L70 35z"/>
<path style="fill:#8fddde; stroke:none;" d="M25 36L26 37L25 36M13 37L13 40C13.6961 38.4463 13.6961 38.5537 13 37z"/>
<path style="fill:#50cbcc; stroke:none;" d="M71 37L72 38L71 37z"/>
<path style="fill:#72d5d6; stroke:none;" d="M24 38L25 39L24 38z"/>
<path style="fill:#8fddde; stroke:none;" d="M53 38L53 57C55.0196 52.1871 55.0196 42.8129 53 38z"/>
<path style="fill:#dff6f6; stroke:none;" d="M42 39L42 57C43.9516 52.349 43.9516 43.651 42 39z"/>
<path style="fill:#72d5d6; stroke:none;" d="M72 40L73 41L72 40z"/>
<path style="fill:#8fddde; stroke:none;" d="M83.3333 40.6667C83.2778 40.7222 83.2222 41.7778 83.6667 41.3333C83.7222 41.2778 83.7778 40.2222 83.3333 40.6667z"/>
<path style="fill:#a9e5e6; stroke:none;" d="M12 41L12 44C12.6961 42.4463 12.6961 42.5537 12 41M23.3333 41.6667C23.2778 41.7222 23.2222 42.7778 23.6667 42.3333C23.7222 42.2778 23.7778 41.2222 23.3333 41.6667z"/>
<path style="fill:#8fddde; stroke:none;" d="M73 43L73 52C74.2561 49.0059 74.2561 45.9941 73 43z"/>
<path style="fill:#50cbcc; stroke:none;" d="M12 44L12 51C13.0595 48.4657 13.0595 46.5343 12 44z"/>
<path style="fill:#dff6f6; stroke:none;" d="M84 45L84 51C84.9511 48.7147 84.9511 47.2853 84 45z"/>
<path style="fill:#50cbcc; stroke:none;" d="M22 46L22 50C22.7102 48.2405 22.7102 47.7595 22 46z"/>
<path style="fill:#8fddde; stroke:none;" d="M12 51L12 54C12.6961 52.4463 12.6961 52.5537 12 51z"/>
<path style="fill:#72d5d6; stroke:none;" d="M23.3333 53.6667C23.2778 53.7222 23.2222 54.7778 23.6667 54.3333C23.7222 54.2778 23.7778 53.2222 23.3333 53.6667M83.3333 53.6667C83.2778 53.7222 83.2222 54.7778 83.6667 54.3333C83.7222 54.2778 83.7778 53.2222 83.3333 53.6667z"/>
<path style="fill:#8fddde; stroke:none;" d="M72 54L72 57C72.6961 55.4463 72.6961 55.5537 72 54z"/>
<path style="fill:#4c6971; stroke:none;" d="M0 55L0 60C0.829893 57.9695 0.829895 57.0305 0 55z"/>
<path style="fill:#50cbcc; stroke:none;" d="M13.3333 55.6667C13.2778 55.7222 13.2222 56.7778 13.6667 56.3333C13.7222 56.2778 13.7778 55.2222 13.3333 55.6667z"/>
<path style="fill:#c4edee; stroke:none;" d="M83.3333 55.6667C83.2778 55.7222 83.2222 56.7778 83.6667 56.3333C83.7222 56.2778 83.7778 55.2222 83.3333 55.6667M13.3333 57.6667C13.2778 57.7222 13.2222 58.7778 13.6667 58.3333C13.7222 58.2778 13.7778 57.2222 13.3333 57.6667z"/>
<path style="fill:#72d5d6; stroke:none;" d="M24 57L25 58L24 57M43 58L44 59L43 58M71 58L72 59L71 58z"/>
<path style="fill:#a9e5e6; stroke:none;" d="M82.3333 58.6667C82.2778 58.7222 82.2222 59.7778 82.6667 59.3333C82.7222 59.2778 82.7778 58.2222 82.3333 58.6667z"/>
<path style="fill:#8fddde; stroke:none;" d="M25 59L26 60L25 59z"/>
<path style="fill:#a9e5e6; stroke:none;" d="M52 59L53 60L52 59z"/>
<path style="fill:#4c6971; stroke:none;" d="M1 60C-1.16583 71.6661 0 84.1629 0 96L32 96C30.7624 94.3499 29.3335 94.6666 32 94C30.1908 93.4257 29.9312 93.5347 28 94L29 92C27.2032 92 27.4785 92.0143 26 93L27 91C20.1493 90.9385 9.79124 81.7802 9 75L6 75C6.98568 73.5215 7 73.7968 7 72C4.77909 71.5416 4.40715 70.8866 3 69L5 70L4 66C2.70031 66.6498 3 66.1468 3 68C2.69365 65.0354 2.52643 62.5808 1 60z"/>
<path style="fill:#72d5d6; stroke:none;" d="M14 60L15 61L14 60z"/>
<path style="fill:#50cbcc; stroke:none;" d="M45 60L46 61L45 60z"/>
<path style="fill:#a9e5e6; stroke:none;" d="M51 60L52 61L51 60z"/>
<path style="fill:#72d5d6; stroke:none;" d="M70 60L71 61L70 60z"/>
<path style="fill:#4c6971; stroke:none;" d="M95 60L95 63C95.6961 61.4463 95.6961 61.5537 95 60z"/>
<path style="fill:#72d5d6; stroke:none;" d="M26 61L27 62L26 61z"/>
<path style="fill:#8fddde; stroke:none;" d="M46 61C47.506 61.683 48.3148 61.8259 50 62C48.494 61.317 47.6852 61.1741 46 61z"/>
<path style="fill:#72d5d6; stroke:none;" d="M81 61L82 62L81 61z"/>
<path style="fill:#50cbcc; stroke:none;" d="M15 62L16 63L15 62z"/>
<path style="fill:#a9e5e6; stroke:none;" d="M27 62L28 63L27 62z"/>
<path style="fill:#72d5d6; stroke:none;" d="M68 63L69 64L68 63z"/>
<path style="fill:#50cbcc; stroke:none;" d="M80 63L81 64L80 63z"/>
<path style="fill:#4c6971; stroke:none;" d="M94 63C94.1431 66.6992 94.1418 70.9467 90 72C90 73.7968 90.0143 73.5215 91 75L88 75C87.4252 80.2844 81.289 86.3828 76 87C74.8707 90.7794 71.7985 92.0242 68 92L69 94L65 93C66.2376 94.6501 67.6665 94.3334 65 95C73.3668 98.5108 86.9238 96 96 96L96 75C95.9997 70.7489 96.4633 66.6057 94 63z"/>
<path style="fill:#ffffff; stroke:none;" d="M1 64L2 65L1 64z"/>
<path style="fill:#50cbcc; stroke:none;" d="M16 64L17 65L16 64M28 64L29 65L28 64z"/>
<path style="fill:#a9e5e6; stroke:none;" d="M67 64L68 65L67 64z"/>
<path style="fill:#50cbcc; stroke:none;" d="M29 65L30 66L29 65M79 65L80 66L79 65M17 66L18 67L17 66M30 66L31 67L30 66z"/>
<path style="fill:#4c6971; stroke:none;" d="M93 66L91 72C92.6306 69.957 93.4441 68.5829 93 66z"/>
<path style="fill:#50cbcc; stroke:none;" d="M31 67L32 68L31 67z"/>
<path style="fill:#a9e5e6; stroke:none;" d="M64 67L65 68L64 67z"/>
<path style="fill:#8fddde; stroke:none;" d="M78 67L79 68L78 67z"/>
<path style="fill:#a9e5e6; stroke:none;" d="M18 68L19 69L18 68z"/>
<path style="fill:#72d5d6; stroke:none;" d="M63 68L64 69L63 68M19 69L20 70L19 69M34 69L35 70L34 69z"/>
<path style="fill:#4c6971; stroke:none;" d="M5.33333 70.6667C5.27778 70.7222 5.22222 71.7778 5.66667 71.3333C5.72222 71.2778 5.77778 70.2222 5.33333 70.6667z"/>
<path style="fill:#a9e5e6; stroke:none;" d="M36 70L37 71L36 70z"/>
<path style="fill:#72d5d6; stroke:none;" d="M60 70L61 71L60 70z"/>
<path style="fill:#a9e5e6; stroke:none;" d="M76 70L77 71L76 70z"/>
<path style="fill:#8fddde; stroke:none;" d="M38 71L39 72L38 71z"/>
<path style="fill:#72d5d6; stroke:none;" d="M58 71L59 72L58 71M75 71L76 72L75 71z"/>
<path style="fill:#8fddde; stroke:none;" d="M40.6667 72.3333C40.2222 72.7778 41.2778 72.7222 41.3333 72.6667C41.7778 72.2222 40.7222 72.2778 40.6667 72.3333z"/>
<path style="fill:#72d5d6; stroke:none;" d="M74 72L75 73L74 72z"/>
<path style="fill:#2fc1c2; stroke:none;" d="M42 73L42 83C43.3457 79.793 43.3457 76.207 42 73z"/>
<path style="fill:#72d5d6; stroke:none;" d="M53 73L53 83C54.3457 79.793 54.3457 76.207 53 73z"/>
<path style="fill:#50cbcc; stroke:none;" d="M73 73L74 74L73 73z"/>
<path style="fill:#4c6971; stroke:none;" d="M7 74L8 75L7 74z"/>
<path style="fill:#72d5d6; stroke:none;" d="M72 74L73 75L72 74z"/>
<path style="fill:#4c6971; stroke:none;" d="M89 74L90 75L89 74z"/>
<path style="fill:#72d5d6; stroke:none;" d="M71 75L72 76L71 75z"/>
<path style="fill:#50cbcc; stroke:none;" d="M26 76L27 77L26 76z"/>
<path style="fill:#a9e5e6; stroke:none;" d="M70 76L71 77L70 76z"/>
<path style="fill:#4c6971; stroke:none;" d="M9 77C12.0359 81.3098 15.6902 84.9641 20 88C16.9641 83.6902 13.3098 80.0359 9 77z"/>
<path style="fill:#8fddde; stroke:none;" d="M27 77L28 78L27 77z"/>
<path style="fill:#4c6971; stroke:none;" d="M87 77C83.7962 80.2056 80.6112 83.2927 78 87C81.549 84.4997 85.9494 81.3344 87 77z"/>
<path style="fill:#50cbcc; stroke:none;" d="M29 78L30 79L29 78z"/>
<path style="fill:#8fddde; stroke:none;" d="M67 78L68 79L67 78z"/>
<path style="fill:#a9e5e6; stroke:none;" d="M30 79L31 80L30 79z"/>
<path style="fill:#50cbcc; stroke:none;" d="M65 79L66 80L65 79z"/>
<path style="fill:#a9e5e6; stroke:none;" d="M32 80L33 81L32 80z"/>
<path style="fill:#50cbcc; stroke:none;" d="M63 80L64 81L63 80z"/>
<path style="fill:#72d5d6; stroke:none;" d="M35 81L36 82L35 81M61 81L62 82L61 81M37.6667 82.3333C37.2222 82.7778 38.2778 82.7222 38.3333 82.6667C38.7778 82.2222 37.7222 82.2778 37.6667 82.3333z"/>
<path style="fill:#a9e5e6; stroke:none;" d="M58.6667 82.3333C58.2222 82.7778 59.2778 82.7222 59.3333 82.6667C59.7778 82.2222 58.7222 82.2778 58.6667 82.3333z"/>
<path style="fill:#c4edee; stroke:none;" d="M40.6667 83.3333C40.2222 83.7778 41.2778 83.7222 41.3333 83.6667C41.7778 83.2222 40.7222 83.2778 40.6667 83.3333z"/>
<path style="fill:#a9e5e6; stroke:none;" d="M54.6667 83.3333C54.2222 83.7778 55.2778 83.7222 55.3333 83.6667C55.7778 83.2222 54.7222 83.2778 54.6667 83.3333z"/>
<path style="fill:#4c6971; stroke:none;" d="M21 88C21.5451 89.6352 21.3648 89.4549 23 90C22.4549 88.3648 22.6352 88.5451 21 88M75 88L72 90C73.8063 90.0532 74.2619 89.7987 76 89L75 88M24 90L25 91L24 90M70 91L71 92L70 91M32 94C34.3144 95.5911 36.1901 95.8575 39 96C36.7168 94.7785 34.5722 94.3479 32 94M62 94C63.2483 94.6848 63.5484 94.7488 65 95C63.7516 94.3152 63.4516 94.2512 62 94M58 95C59.5061 95.683 60.3148 95.8259 62 96C60.494 95.317 59.6852 95.1741 58 95z"/>
</svg>
